<?xml version="1.0" standalone="no"?>
<!DOCTYPE svg PUBLIC "-//W3C//DTD SVG 20010904//EN"
 "http://www.w3.org/TR/2001/REC-SVG-20010904/DTD/svg10.dtd">
<svg version="1.0" xmlns="http://www.w3.org/2000/svg"
 width="700.000000pt" height="700.000000pt" viewBox="0 0 700.000000 700.000000"
 preserveAspectRatio="xMidYMid meet">
<metadata>
Created by potrace 1.11, written by Peter Selinger 2001-2013
</metadata>
<g transform="translate(0.000000,700.000000) scale(0.100000,-0.100000)"
fill="#000000" stroke="none">
<path d="M3339 6996 c-2 -2 -40 -6 -83 -10 -44 -4 -82 -8 -85 -10 -3 -2 -30
-7 -60 -10 -30 -4 -115 -22 -189 -42 -787 -205 -1407 -815 -1631 -1604 -70
-246 -100 -528 -77 -735 11 -102 13 -121 31 -305 3 -30 8 -73 10 -95 2 -22 7
-71 10 -110 4 -38 8 -81 10 -95 2 -14 7 -56 10 -95 3 -38 7 -83 9 -100 2 -16
7 -59 10 -95 4 -36 9 -85 11 -110 3 -25 7 -69 10 -97 3 -29 7 -77 10 -105 3
-29 7 -73 10 -98 7 -64 14 -136 20 -200 7 -77 15 -149 20 -190 2 -19 7 -67 10
-107 4 -40 8 -85 10 -100 2 -15 6 -64 10 -108 7 -80 24 -126 65 -175 11 -14
306 -406 655 -872 349 -466 645 -853 658 -859 16 -10 189 -13 697 -13 371 0
687 3 702 7 18 5 50 37 97 100 39 50 74 97 79 102 4 6 82 109 172 230 91 121
169 225 173 230 5 6 62 82 127 170 66 88 123 165 128 170 4 6 82 109 172 230
91 121 168 225 173 230 4 6 34 46 67 90 33 44 63 85 67 90 43 53 105 139 116
162 8 15 18 64 22 108 4 44 9 91 10 105 1 14 6 57 9 95 4 39 9 87 11 108 2 20
7 63 10 95 13 139 16 169 20 202 2 19 7 64 10 100 3 36 8 81 10 100 2 19 7 64
10 100 3 36 8 81 10 100 2 19 6 64 10 100 3 36 8 81 10 100 2 19 7 64 10 100
3 36 8 83 10 105 2 22 7 67 10 100 7 73 14 131 20 188 2 23 7 74 10 112 4 39
8 81 10 95 26 184 24 404 -6 580 -6 36 -13 74 -14 85 -2 12 -17 75 -35 140
-111 418 -322 775 -635 1076 -73 70 -103 97 -191 167 -115 92 -376 242 -527
301 -172 68 -386 127 -532 146 -27 4 -61 9 -75 11 -33 6 -416 15 -421 10z
m418 -229 c11 -3 43 -9 70 -13 103 -15 229 -46 343 -84 107 -37 298 -125 373
-173 28 -18 59 -36 67 -41 34 -16 61 -35 160 -113 343 -267 591 -622 715
-1023 30 -96 50 -182 70 -295 20 -112 25 -315 12 -435 -4 -36 -9 -87 -12 -115
-3 -27 -7 -68 -10 -90 -2 -22 -7 -71 -10 -110 -4 -38 -8 -81 -10 -95 -2 -14
-7 -61 -10 -105 -4 -44 -8 -87 -10 -95 -2 -8 -7 -55 -11 -105 -3 -49 -8 -98
-10 -109 -2 -10 -6 -53 -10 -94 -3 -42 -7 -83 -9 -91 -1 -9 -6 -54 -10 -101
-3 -47 -8 -92 -10 -100 -2 -8 -7 -53 -10 -100 -4 -47 -8 -92 -10 -100 -2 -8
-6 -53 -10 -100 -3 -47 -8 -92 -10 -100 -2 -8 -7 -51 -10 -95 -4 -44 -8 -91
-10 -105 -1 -14 -6 -57 -10 -97 -11 -114 -11 -119 -20 -134 -5 -8 -289 -388
-631 -844 l-623 -830 -601 0 -601 0 -630 839 c-346 462 -630 842 -630 845 -3
14 -7 50 -13 116 -4 39 -9 90 -11 115 -3 25 -8 68 -11 95 -3 28 -7 66 -9 85
-2 19 -7 69 -10 110 -3 41 -8 82 -10 90 -2 8 -7 51 -10 95 -3 44 -7 91 -9 105
-3 14 -7 61 -11 105 -3 44 -8 94 -10 110 -2 17 -7 57 -10 90 -3 33 -8 78 -10
100 -3 22 -7 67 -10 100 -3 33 -7 76 -10 95 -2 19 -7 66 -10 103 -3 37 -7 82
-10 100 -2 18 -7 59 -10 92 -2 33 -7 78 -9 101 -3 23 -8 70 -11 105 -3 35 -9
98 -14 139 -8 76 -7 253 3 319 3 20 8 56 12 81 5 40 15 94 28 157 11 53 51
184 76 253 47 127 184 391 242 465 187 242 298 356 472 485 304 224 627 351
1011 399 71 9 442 7 482 -2z"/>
<path d="M2765 5803 c-235 -30 -453 -221 -521 -458 -22 -76 -25 -219 -7 -299
26 -116 91 -230 189 -332 22 -23 82 -87 134 -144 52 -56 111 -120 130 -140 36
-38 201 -217 300 -323 30 -33 71 -77 90 -97 20 -21 83 -89 140 -151 229 -248
244 -260 307 -244 33 8 71 46 378 379 85 91 282 304 321 346 29 30 66 71 84
90 18 19 81 87 140 150 173 185 193 209 232 272 178 289 98 656 -185 850 -204
139 -490 138 -697 -3 -70 -48 -128 -109 -224 -237 l-77 -102 -88 117 c-48 65
-112 141 -143 169 -65 59 -170 117 -254 139 -58 16 -190 25 -249 18z m169
-224 c75 -17 159 -65 208 -118 75 -79 219 -281 211 -294 -4 -7 -37 -52 -74
-102 -82 -111 -104 -167 -104 -260 2 -178 143 -316 325 -317 193 -1 344 164
326 357 -7 72 -29 118 -105 220 -37 50 -70 96 -75 102 -8 15 174 262 233 316
82 74 185 108 304 101 195 -11 362 -180 371 -377 8 -151 -31 -229 -195 -402
-32 -33 -67 -71 -79 -85 -12 -14 -70 -77 -129 -140 -59 -63 -120 -128 -135
-145 -16 -16 -71 -77 -124 -134 -54 -57 -108 -116 -122 -131 -14 -15 -72 -78
-130 -140 -58 -62 -112 -121 -121 -132 -16 -18 -19 -16 -77 44 -33 35 -72 77
-87 93 -14 17 -48 53 -73 80 -26 28 -80 86 -121 130 -41 44 -104 112 -140 150
-36 39 -91 98 -121 131 -30 32 -110 118 -176 189 -250 267 -272 304 -279 453
-12 258 239 469 489 411z m606 -636 c72 -97 80 -123 55 -178 -46 -96 -205 -59
-205 49 0 24 95 177 110 176 3 -1 21 -22 40 -47z"/>
<path d="M3390 3280 l0 -110 110 0 110 0 0 110 0 110 -110 0 -110 0 0 -110z"/>
<path d="M3394 2951 c-2 -2 -4 -52 -4 -111 l0 -106 108 0 107 1 3 110 3 110
-107 0 c-58 0 -108 -2 -110 -4z"/>
<path d="M3145 2513 c-124 -19 -201 -54 -274 -124 -90 -87 -133 -189 -133
-314 1 -134 42 -214 181 -352 157 -156 502 -487 524 -502 26 -18 89 -17 117 2
23 16 435 412 555 533 38 39 77 84 85 100 8 16 19 36 25 44 29 39 45 156 34
240 -29 211 -217 370 -437 371 -106 1 -219 -37 -286 -96 -16 -14 -31 -25 -34
-25 -3 0 -21 12 -41 28 -86 66 -229 109 -316 95z m128 -236 c18 -8 66 -44 107
-80 43 -38 85 -67 101 -69 42 -6 86 16 143 73 65 65 124 93 196 92 164 -3 267
-151 206 -296 -10 -25 -72 -93 -178 -196 -239 -232 -342 -331 -348 -331 -5 0
-129 118 -366 349 -122 118 -153 155 -166 191 -60 180 125 342 305 267z"/>
<path d="M1985 979 c-137 -55 -259 -104 -270 -109 -11 -5 -382 -154 -825 -331
-443 -176 -817 -327 -832 -335 -40 -21 -58 -63 -58 -139 l0 -65 110 0 c99 0
110 2 110 18 0 15 202 99 1058 441 l1059 424 -38 96 c-21 53 -44 97 -51 98 -7
1 -125 -43 -263 -98z"/>
<path d="M4731 1058 c-5 -13 -22 -57 -39 -99 l-29 -76 1058 -424 c858 -342
1059 -426 1059 -441 0 -16 11 -18 110 -18 l110 0 0 65 c0 91 -17 121 -88 152
-97 43 -2152 863 -2163 863 -5 0 -13 -10 -18 -22z"/>
</g>
</svg>
